<svg width="80" height="80" viewBox="0 0 80 80" fill="none" xmlns="http://www.w3.org/2000/svg">
<g filter="url(#filter0_d)">
<circle cx="40" cy="28" r="28" fill="url(#paint0_linear)"/>
<path d="M41.2499 14.6667C35.7349 14.6667 31.2499 19.1517 31.2499 24.6667V26.1367L28.8382 30.96C28.7082 31.2183 28.7232 31.525 28.8749 31.77C29.0266 32.015 29.2949 32.1667 29.5832 32.1667H31.2499V36.18C31.2499 36.67 31.4632 37.1317 31.8382 37.4483C32.2132 37.765 32.6999 37.9033 33.1866 37.8217L36.2499 37.315V40.5C36.2499 40.745 36.3566 40.9783 36.5449 41.135C36.6966 41.2633 36.8866 41.3333 37.0832 41.3333C37.1282 41.3333 37.1749 41.33 37.2199 41.3217L47.2199 39.655C47.6216 39.5883 47.9166 39.2417 47.9166 38.8333V33.6983C47.9166 32.5383 48.4866 31.6083 48.9649 31.03C50.4382 29.25 51.2499 26.99 51.2499 24.6667C51.2499 19.1517 46.7649 14.6667 41.2499 14.6667Z" fill="white"/>
</g>
<defs>
<filter id="filter0_d" x="0" y="0" width="80" height="80" filterUnits="userSpaceOnUse" color-interpolation-filters="sRGB">
<feFlood flood-opacity="0" result="BackgroundImageFix"/>
<feColorMatrix in="SourceAlpha" type="matrix" values="0 0 0 0 0 0 0 0 0 0 0 0 0 0 0 0 0 0 127 0" result="hardAlpha"/>
<feOffset dy="12"/>
<feGaussianBlur stdDeviation="6"/>
<feColorMatrix type="matrix" values="0 0 0 0 1 0 0 0 0 0.494118 0 0 0 0 0.701961 0 0 0 0.08 0"/>
<feBlend mode="normal" in2="BackgroundImageFix" result="effect1_dropShadow"/>
<feBlend mode="normal" in="SourceGraphic" in2="effect1_dropShadow" result="shape"/>
</filter>
<linearGradient id="paint0_linear" x1="40" y1="0" x2="40" y2="56" gradientUnits="userSpaceOnUse">
<stop stop-color="#FF7EB3"/>
<stop offset="1" stop-color="#FF758C"/>
</linearGradient>
</defs>
</svg>
